<?xml version="1.0" encoding="UTF-8"?>
<svg version="1.1" xmlns="http://www.w3.org/2000/svg" width="150" height="150">
<path d="M0 0 C15.70000176 12.29957164 25.59113616 29.70442844 28.41796875 49.45703125 C30.43040677 69.86643483 25.24920977 89.50179039 12.53979492 105.74121094 C0.692834 120.01912861 -16.08143166 129.86654381 -34.58203125 132.45703125 C-56.59162311 134.4050787 -77.31336345 129.50267769 -94.51953125 115.20703125 C-108.86830147 102.65540143 -117.93574606 85.15304804 -119.80957031 66.14941406 C-121.19779773 44.94183925 -115.00483808 25.00903063 -100.92700195 8.91308594 C-74.7051747 -19.48755549 -30.80166863 -22.6802184 0 0 Z " fill="#06070A" transform="translate(120.58203125,16.54296875)"/>
<path d="M0 0 C7.59514275 2.20167946 12.56953434 6.26849491 16.52734375 13.09765625 C19.65357389 20.00444377 19.88697913 27.07896869 17.7734375 34.33984375 C14.60788586 41.59744994 9.25782349 46.25846564 2.203125 49.69921875 C-4.13614621 51.72702748 -11.86914433 51.70785535 -17.91015625 48.78515625 C-19.09636716 48.06646662 -20.26590411 47.318928 -21.41015625 46.53515625 C-22.29703125 45.97828125 -23.18390625 45.42140625 -24.09765625 44.84765625 C-27.35280668 41.59250582 -29.67846081 37.80667167 -31.41015625 33.53515625 C-31.08015625 32.87515625 -30.75015625 32.21515625 -30.41015625 31.53515625 C-29.38921875 32.92734375 -29.38921875 32.92734375 -28.34765625 34.34765625 C-24.7795834 38.55182008 -21.13377677 40.2497113 -15.7265625 40.81640625 C-10.24349356 40.99495938 -5.98895563 40.83615115 -1.41015625 37.53515625 C3.3606184 32.77563343 5.71772141 29.23698478 5.90234375 22.34765625 C5.82342448 16.9165759 5.04625192 12.81915511 1.58984375 8.53515625 C-3.38786561 4.13050147 -8.94996018 2.53708481 -15.41015625 1.53515625 C-10.63202763 -1.65026283 -5.53052002 -1.06666432 0 0 Z " fill="#E7AE12" transform="translate(81.41015625,65.46484375)"/>
<path d="M0 0 C4.32134674 2.61555197 7.43312998 6.55140485 10.5 10.5 C10.17 11.16 9.84 11.82 9.5 12.5 C8.79875 11.88125 8.0975 11.2625 7.375 10.625 C2.34811321 6.90947498 -2.29853741 5.86934279 -8.5 6.5 C-14.83009654 8.41755076 -18.85595648 10.97872194 -22.5 16.5 C-24.95354884 21.87444031 -25.66918365 27.24803802 -23.66015625 32.8359375 C-20.86467065 38.50220798 -17.46699685 42.23028175 -11.5 44.5 C-8.16053606 45.13359302 -4.89577766 45.42345583 -1.5 45.5 C-1.5 46.16 -1.5 46.82 -1.5 47.5 C-8.10302186 50.11049702 -14.59482516 50.06327808 -21.5 48.5 C-28.60493408 44.80168387 -33.47129795 38.84721867 -36.8125 31.6875 C-38.59768779 23.41072025 -37.78460116 16.82892304 -33.5 9.5 C-26.05920741 -1.55489185 -12.4756873 -5.42315452 0 0 Z " fill="#E8B013" transform="translate(86.5,36.5)"/>
<path d="M0 0 C2.64 0 5.28 0 8 0 C8 0.66 8 1.32 8 2 C1.4282846 4.59812004 -5.08928272 4.241926 -12 3 C-12.33 2.34 -12.66 1.68 -13 1 C-8.71 1 -4.42 1 0 1 C0 0.67 0 0.34 0 0 Z " fill="#A78548" transform="translate(77,82)"/>
<path d="M0 0 C0.85464844 -0.00515625 1.70929688 -0.0103125 2.58984375 -0.015625 C5.18224567 0.26286367 6.82764234 0.94330828 9.0625 2.25 C7.7425 2.58 6.4225 2.91 5.0625 3.25 C5.0625 3.91 5.0625 4.57 5.0625 5.25 C0.7725 4.26 -3.5175 3.27 -7.9375 2.25 C-4.71002945 0.09835297 -3.73244361 -0.02245079 0 0 Z " fill="#C4983B" transform="translate(73.9375,64.75)"/>
<path d="M0 0 C0.969375 0.7425 1.93875 1.485 2.9375 2.25 C3.48277344 2.66765625 4.02804688 3.0853125 4.58984375 3.515625 C6.2692289 5.28339884 6.59922685 6.62579957 7 9 C6.38511719 8.65066406 5.77023438 8.30132812 5.13671875 7.94140625 C4.32847656 7.48636719 3.52023438 7.03132813 2.6875 6.5625 C1.88699219 6.11003906 1.08648437 5.65757813 0.26171875 5.19140625 C-3.19822789 3.36880914 -5.83565003 2.88167609 -9.6875 2.9375 C-10.49574219 2.94652344 -11.30398437 2.95554688 -12.13671875 2.96484375 C-12.75160156 2.97644531 -13.36648437 2.98804688 -14 3 C-13.67 2.34 -13.34 1.68 -13 1 C-11.58344207 0.9727585 -10.16672955 0.95349533 -8.75 0.9375 C-7.56664063 0.92009766 -7.56664063 0.92009766 -6.359375 0.90234375 C-4.09308998 0.99614694 -2.1711105 1.36758937 0 2 C0 1.34 0 0.68 0 0 Z " fill="#CB9F49" transform="translate(90,40)"/>
<path d="M0 0 C1.0828125 1.11375 1.0828125 1.11375 2.1875 2.25 C4.68592573 4.69290515 7.23643202 6.8681047 10 9 C9.01 9 8.02 9 7 9 C7.66 10.32 8.32 11.64 9 13 C5.34646845 11.56356879 4.06021834 9.94164969 2.25 6.5 C1.82203125 5.7059375 1.3940625 4.911875 0.953125 4.09375 C0 2 0 2 0 0 Z " fill="#C3973E" transform="translate(50,97)"/>
<path d="M0 0 C1.32 0 2.64 0 4 0 C4 1.65 4 3.3 4 5 C2.35 5 0.7 5 -1 5 C-0.67 3.35 -0.34 1.7 0 0 Z " fill="#2B2D31" transform="translate(99,62)"/>
<path d="M0 0 C1.32 0 2.64 0 4 0 C4.33 0.99 4.66 1.98 5 3 C4.01 3.66 3.02 4.32 2 5 C1.34 4.67 0.68 4.34 0 4 C0 2.68 0 1.36 0 0 Z " fill="#2C2D30" transform="translate(107,33)"/>
</svg>
